<svg xmlns="http://www.w3.org/2000/svg" width="720" height="440" viewBox="0 0 720 440"><defs><marker id="arrow" markerWidth="8" markerHeight="8" refX="7" refY="4" orient="auto"><path d="M0,0 L8,4 L0,8 Z" fill="#333"/></marker></defs><rect width="100%" height="100%" fill="white"/><text x="24" y="34" font-size="24" fill="#111" font-family="Arial">方案二：3-RPR 平面并联机构</text><line x1="120" y1="330" x2="600" y2="330" stroke="#2563eb" stroke-width="4"/><line x1="600" y1="330" x2="360" y2="120" stroke="#2563eb" stroke-width="4"/><line x1="360" y1="120" x2="120" y2="330" stroke="#2563eb" stroke-width="4"/><text x="70" y="365" font-size="18" fill="#2563eb" font-family="Arial">机架</text><line x1="250" y1="255" x2="470" y2="255" stroke="#b91c1c" stroke-width="4"/><line x1="470" y1="255" x2="360" y2="190" stroke="#b91c1c" stroke-width="4"/><line x1="360" y1="190" x2="250" y2="255" stroke="#b91c1c" stroke-width="4"/><text x="500" y="220" font-size="18" fill="#b91c1c" font-family="Arial">动平台</text><line x1="120" y1="330" x2="161" y2="302" stroke="#333" stroke-width="4"/><rect x="161" y="278" width="48" height="28" fill="#f8fafc" stroke="#333" stroke-width="3"/><text x="177" y="298" font-size="18" fill="#111" font-family="Arial">P</text><line x1="209" y1="282" x2="250" y2="255" stroke="#333" stroke-width="4"/><circle cx="120" cy="330" r="7" fill="#111"/><circle cx="250" cy="255" r="7" fill="#111"/><text x="128" y="322" font-size="16" fill="#111" font-family="Arial">R</text><text x="258" y="247" font-size="16" fill="#111" font-family="Arial">R</text><line x1="600" y1="330" x2="511" y2="282" stroke="#333" stroke-width="4"/><rect x="511" y="278" width="48" height="28" fill="#f8fafc" stroke="#333" stroke-width="3"/><text x="527" y="298" font-size="18" fill="#111" font-family="Arial">P</text><line x1="559" y1="302" x2="470" y2="255" stroke="#333" stroke-width="4"/><circle cx="600" cy="330" r="7" fill="#111"/><circle cx="470" cy="255" r="7" fill="#111"/><text x="608" y="322" font-size="16" fill="#111" font-family="Arial">R</text><text x="478" y="247" font-size="16" fill="#111" font-family="Arial">R</text><line x1="360" y1="120" x2="336" y2="155" stroke="#333" stroke-width="4"/><rect x="336" y="141" width="48" height="28" fill="#f8fafc" stroke="#333" stroke-width="3"/><text x="352" y="161" font-size="18" fill="#111" font-family="Arial">P</text><line x1="384" y1="155" x2="360" y2="190" stroke="#333" stroke-width="4"/><circle cx="360" cy="120" r="7" fill="#111"/><circle cx="360" cy="190" r="7" fill="#111"/><text x="368" y="112" font-size="16" fill="#111" font-family="Arial">R</text><text x="368" y="182" font-size="16" fill="#111" font-family="Arial">R</text><text x="150" y="405" font-size="18" fill="#111" font-family="Arial">三条支链均为 R-P-R，中间移动副位于工作平面内</text></svg>