<svg xmlns="http://www.w3.org/2000/svg" width="720" height="420" viewBox="0 0 720 420"><defs><marker id="arrow" markerWidth="8" markerHeight="8" refX="7" refY="4" orient="auto"><path d="M0,0 L8,4 L0,8 Z" fill="#333"/></marker></defs><rect width="100%" height="100%" fill="white"/><text x="24" y="34" font-size="24" fill="#111" font-family="Arial">方案一：3-RRR 平面并联机构</text><line x1="110" y1="310" x2="610" y2="310" stroke="#2563eb" stroke-width="4"/><line x1="610" y1="310" x2="360" y2="120" stroke="#2563eb" stroke-width="4"/><line x1="360" y1="120" x2="110" y2="310" stroke="#2563eb" stroke-width="4"/><text x="70" y="345" font-size="18" fill="#2563eb" font-family="Arial">机架</text><line x1="250" y1="250" x2="470" y2="250" stroke="#b91c1c" stroke-width="4"/><line x1="470" y1="250" x2="360" y2="180" stroke="#b91c1c" stroke-width="4"/><line x1="360" y1="180" x2="250" y2="250" stroke="#b91c1c" stroke-width="4"/><text x="500" y="210" font-size="18" fill="#b91c1c" font-family="Arial">动平台</text><line x1="110" y1="310" x2="170" y2="260" stroke="#333" stroke-width="4"/><line x1="170" y1="260" x2="250" y2="250" stroke="#333" stroke-width="4"/><circle cx="110" cy="310" r="7" fill="#111"/><circle cx="170" cy="260" r="7" fill="#111"/><circle cx="250" cy="250" r="7" fill="#111"/><text x="178" y="252" font-size="16" fill="#111" font-family="Arial">R</text><text x="118" y="302" font-size="16" fill="#111" font-family="Arial">R</text><text x="258" y="242" font-size="16" fill="#111" font-family="Arial">R</text><line x1="610" y1="310" x2="550" y2="260" stroke="#333" stroke-width="4"/><line x1="550" y1="260" x2="470" y2="250" stroke="#333" stroke-width="4"/><circle cx="610" cy="310" r="7" fill="#111"/><circle cx="550" cy="260" r="7" fill="#111"/><circle cx="470" cy="250" r="7" fill="#111"/><text x="558" y="252" font-size="16" fill="#111" font-family="Arial">R</text><text x="618" y="302" font-size="16" fill="#111" font-family="Arial">R</text><text x="478" y="242" font-size="16" fill="#111" font-family="Arial">R</text><line x1="360" y1="120" x2="360" y2="150" stroke="#333" stroke-width="4"/><line x1="360" y1="150" x2="360" y2="180" stroke="#333" stroke-width="4"/><circle cx="360" cy="120" r="7" fill="#111"/><circle cx="360" cy="150" r="7" fill="#111"/><circle cx="360" cy="180" r="7" fill="#111"/><text x="368" y="142" font-size="16" fill="#111" font-family="Arial">R</text><text x="368" y="112" font-size="16" fill="#111" font-family="Arial">R</text><text x="368" y="172" font-size="16" fill="#111" font-family="Arial">R</text><text x="180" y="390" font-size="18" fill="#111" font-family="Arial">三条支链均为 R-R-R，机构工作于同一平面</text></svg>