<svg xmlns="http://www.w3.org/2000/svg" width="640" height="420" viewBox="0 0 640 420"><defs><marker id="arrow" markerWidth="8" markerHeight="8" refX="7" refY="4" orient="auto"><path d="M0,0 L8,4 L0,8 Z" fill="#333"/></marker><marker id="bluearrow" markerWidth="8" markerHeight="8" refX="7" refY="4" orient="auto"><path d="M0,0 L8,4 L0,8 Z" fill="#1d4ed8"/></marker><marker id="redarrow" markerWidth="8" markerHeight="8" refX="7" refY="4" orient="auto"><path d="M0,0 L8,4 L0,8 Z" fill="#b91c1c"/></marker></defs><rect width="100%" height="100%" fill="white"/><text x="24" y="34" font-size="24" font-family="Arial">第8题：过 P 的互易力旋量族</text><line x1="150" y1="290" x2="510" y2="290" stroke="#333" stroke-width="2.5" marker-end="url(#arrow)"/><line x1="150" y1="290" x2="150" y2="91.99999999999997" stroke="#333" stroke-width="2.5" marker-end="url(#arrow)"/><text x="518" y="294" font-size="18" font-family="Arial">x</text><text x="142" y="81.99999999999997" font-size="18" font-family="Arial">y</text><line x1="60" y1="200" x2="520" y2="200" stroke="#ddd" stroke-width="1.5" stroke-dasharray="6,6"/><text x="530" y="206" font-size="16" fill="#666" font-family="Arial">z=0 平面</text><line x1="150" y1="200" x2="211.5636257986204" y2="369.1446717414635" stroke="#b91c1c" stroke-width="3" marker-end="url(#redarrow)"/><line x1="150" y1="200" x2="297.4473679720185" y2="303.2437585431883" stroke="#b91c1c" stroke-width="3" marker-end="url(#redarrow)"/><line x1="150" y1="200" x2="330.0" y2="200.0" stroke="#b91c1c" stroke-width="3" marker-end="url(#redarrow)"/><line x1="150" y1="200" x2="305.88457268119896" y2="110.00000000000001" stroke="#b91c1c" stroke-width="3" marker-end="url(#redarrow)"/><line x1="150" y1="200" x2="226.0712871133259" y2="36.86459833340302" stroke="#b91c1c" stroke-width="3" marker-end="url(#redarrow)"/><circle cx="150" cy="200" r="5" fill="#111"/><text x="158" y="190" font-size="18" font-family="Arial">P(0,1,0)</text><text x="285" y="360" font-size="18" fill="#b91c1c" font-family="Arial">所有作用线均过 P，且位于 z=0 平面</text></svg>